<svg width="16" height="17" viewBox="0 0 16 17" fill="none" xmlns="http://www.w3.org/2000/svg">
<path d="M6.99992 13.8867V3.35337C6.99992 2.35337 6.57325 1.95337 5.51325 1.95337H2.81992C1.75992 1.95337 1.33325 2.35337 1.33325 3.35337V13.8867C1.33325 14.8867 1.75992 15.2867 2.81992 15.2867H5.51325C6.57325 15.2867 6.99992 14.8867 6.99992 13.8867Z" stroke="white" stroke-linecap="round" stroke-linejoin="round"/>
<path d="M14.6667 7.8867V3.35337C14.6667 2.35337 14.24 1.95337 13.18 1.95337H10.4867C9.42667 1.95337 9 2.35337 9 3.35337V7.8867C9 8.8867 9.42667 9.2867 10.4867 9.2867H13.18C14.24 9.2867 14.6667 8.8867 14.6667 7.8867Z" stroke="white" stroke-linecap="round" stroke-linejoin="round"/>
<path d="M14.6667 13.8867V12.6867C14.6667 11.6867 14.24 11.2867 13.18 11.2867H10.4867C9.42667 11.2867 9 11.6867 9 12.6867V13.8867C9 14.8867 9.42667 15.2867 10.4867 15.2867H13.18C14.24 15.2867 14.6667 14.8867 14.6667 13.8867Z" stroke="white" stroke-linecap="round" stroke-linejoin="round"/>
</svg>
