<svg width="17" height="18" viewBox="0 0 17 18" fill="none" xmlns="http://www.w3.org/2000/svg">
<path d="M5.08278 10.7195L11.3498 4.45143L11.6809 4.78259L5.41279 11.0496L5.41277 11.0496C5.28127 11.1811 5.17695 11.3372 5.10578 11.5091C5.03462 11.6809 4.99799 11.865 4.99799 12.051C4.99799 12.237 5.03462 12.4211 5.10578 12.5929C5.17695 12.7648 5.28127 12.9209 5.41277 13.0524C5.54427 13.1839 5.70039 13.2882 5.8722 13.3594C6.04402 13.4305 6.22817 13.4672 6.41414 13.4672C6.60012 13.4672 6.78427 13.4305 6.95608 13.3594C7.1279 13.2882 7.28402 13.1839 7.41552 13.0524L14.1304 6.33744C14.4151 6.05277 14.6409 5.71481 14.795 5.34286C14.9491 4.97092 15.0284 4.57227 15.0284 4.16967C15.0284 3.76708 14.9491 3.36843 14.795 2.99649C14.6409 2.62454 14.4151 2.28658 14.1304 2.00191C13.8458 1.71723 13.5078 1.49141 13.1359 1.33735C12.7639 1.18328 12.3653 1.10399 11.9627 1.10399C11.5601 1.10399 11.1614 1.18328 10.7895 1.33735C10.4175 1.49141 10.0796 1.71723 9.79491 2.00191L9.79489 2.00193L2.88051 8.91747L2.88049 8.91746L2.8775 8.92052C2.01115 9.80848 1.52961 11.0021 1.53725 12.2426C1.54489 13.4832 2.04109 14.6708 2.91831 15.548C3.79553 16.4252 4.98311 16.9214 6.22367 16.9291C7.46423 16.9367 8.65783 16.4552 9.54579 15.5888L9.54581 15.5888L9.54887 15.5858L16.0165 9.11701L16.3477 9.44817L9.88117 15.9135C8.90367 16.8547 7.59597 17.375 6.23897 17.3625C4.88091 17.3501 3.58203 16.805 2.62177 15.8446C1.66151 14.8842 1.11662 13.5852 1.10434 12.2272C1.09207 10.8701 1.61258 9.56248 2.55396 8.58511L9.46604 1.67187C9.46604 1.67186 9.46605 1.67185 9.46606 1.67185C10.1285 1.0094 11.027 0.637243 11.9638 0.637243C12.9007 0.637243 13.7992 1.00941 14.4617 1.67187C15.1241 2.33433 15.4963 3.23282 15.4963 4.16967C15.4963 5.10653 15.1241 6.00502 14.4617 6.66748L7.74672 13.3824L7.74668 13.3825C7.57183 13.5574 7.36424 13.6961 7.13576 13.7908C6.90728 13.8855 6.66239 13.9343 6.41508 13.9343C5.91559 13.9344 5.43652 13.7361 5.08327 13.3829C4.73001 13.0298 4.53151 12.5508 4.53141 12.0513C4.53132 11.5519 4.72964 11.0728 5.08275 10.7196C5.08276 10.7196 5.08277 10.7195 5.08278 10.7195Z" fill="#747474" stroke="#363636" stroke-width="0.699473"/>
</svg>
