<svg width="16" height="17" viewBox="0 0 16 17" fill="none" xmlns="http://www.w3.org/2000/svg">
<path d="M14.44 7.58002L13.7867 10.3667C13.2267 12.7734 12.12 13.7467 10.04 13.5467C9.70671 13.52 9.3467 13.46 8.96004 13.3667L7.84004 13.1C5.06004 12.44 4.20004 11.0667 4.85337 8.28002L5.50671 5.48669C5.64004 4.92002 5.80004 4.42669 6.00004 4.02002C6.78004 2.40669 8.1067 1.97335 10.3334 2.50002L11.4467 2.76002C14.24 3.41335 15.0934 4.79335 14.44 7.58002Z" stroke="#EFE6FD" stroke-linecap="round" stroke-linejoin="round"/>
<path d="M10.04 13.5467C9.62665 13.8267 9.10665 14.0601 8.47332 14.2667L7.41998 14.6134C4.77332 15.4667 3.37998 14.7534 2.51998 12.1067L1.66665 9.47341C0.813317 6.82675 1.51998 5.42675 4.16665 4.57341L5.21998 4.22675C5.49332 4.14008 5.75332 4.06675 5.99998 4.02008C5.79998 4.42675 5.63998 4.92008 5.50665 5.48675L4.85332 8.28008C4.19998 11.0667 5.05998 12.4401 7.83998 13.1001L8.95998 13.3667C9.34665 13.4601 9.70665 13.5201 10.04 13.5467Z" stroke="#EFE6FD" stroke-linecap="round" stroke-linejoin="round"/>
</svg>
