<svg width="128" height="26" viewBox="0 0 128 26" fill="none" xmlns="http://www.w3.org/2000/svg">
<path d="M21.7876 7.42983V9.38336C21.7876 10.0666 21.4674 10.7071 20.9123 11.102L9.16978 19.7061C8.41186 20.2612 7.37638 20.2612 6.62913 19.6954L5.09193 18.5425C4.39805 18.0194 3.83228 16.8879 3.83228 16.0232V7.42983C3.83228 6.23423 4.75033 4.91053 5.8712 4.4942L11.7104 2.30583C12.3189 2.08165 13.301 2.08165 13.9095 2.30583L19.7487 4.4942C20.8696 4.91053 21.7876 6.23423 21.7876 7.42983Z" fill="#CEB0FA"/>
<path d="M20.0905 13.1729C20.795 12.6605 21.7878 13.1622 21.7878 14.0376V16.0445C21.7878 16.9092 21.222 18.03 20.5281 18.5531L14.6889 22.9192C14.1765 23.2928 13.4933 23.485 12.8101 23.485C12.1269 23.485 11.4437 23.2928 10.9313 22.9085L10.0453 22.2467C9.46882 21.8197 9.46882 20.955 10.0559 20.528L20.0905 13.1729Z" fill="#CEB0FA"/>
<path d="M39.0148 7.47355V9.12348H34.9617V19.31H33.0428V9.12348H28.9897V7.47355H39.0148ZM39.4767 19.31V10.343H41.1087L41.2881 11.9571C41.5272 11.3712 41.8799 10.9288 42.3462 10.6299C42.8244 10.3191 43.4103 10.1636 44.1037 10.1636C44.2831 10.1636 44.4624 10.1816 44.6417 10.2175C44.8211 10.2414 44.9705 10.2832 45.0901 10.343L44.8211 12.0288C44.6896 11.981 44.5401 11.9451 44.3727 11.9212C44.2173 11.8853 44.0021 11.8674 43.7271 11.8674C43.3565 11.8674 42.9918 11.969 42.6331 12.1723C42.2744 12.3636 41.9755 12.6565 41.7364 13.051C41.5093 13.4456 41.3957 13.9477 41.3957 14.5575V19.31H39.4767ZM49.7361 19.4893C49.1503 19.4893 48.6063 19.3817 48.1041 19.1665C47.6139 18.9513 47.2194 18.6046 46.9205 18.1264C46.6216 17.6481 46.4721 17.0264 46.4721 16.2612V10.343H48.3911V15.777C48.3911 16.59 48.5644 17.1519 48.9111 17.4628C49.2579 17.7617 49.7421 17.9111 50.3638 17.9111C50.6627 17.9111 50.9496 17.8633 51.2246 17.7677C51.5116 17.6601 51.7686 17.4987 51.9958 17.2835C52.223 17.0563 52.3963 16.7693 52.5159 16.4226C52.6474 16.0759 52.7132 15.6694 52.7132 15.2031V10.343H54.6321V19.31H52.9463L52.8566 17.8573C52.5458 18.4193 52.1273 18.8318 51.6013 19.0948C51.0752 19.3578 50.4535 19.4893 49.7361 19.4893ZM59.8897 7.70669V16.6199C59.8897 17.0623 60.0033 17.3851 60.2305 17.5883C60.4696 17.7916 60.7864 17.8932 61.181 17.8932C61.5038 17.8932 61.7847 17.8454 62.0239 17.7497C62.263 17.6421 62.4842 17.4987 62.6874 17.3193L63.1178 18.7182C62.8428 18.9573 62.5021 19.1486 62.0956 19.2921C61.701 19.4236 61.2587 19.4893 60.7685 19.4893C60.2544 19.4893 59.7821 19.4056 59.3517 19.2383C58.9213 19.0709 58.5865 18.8019 58.3474 18.4312C58.1083 18.0486 57.9827 17.5525 57.9708 16.9427V8.24471L59.8897 7.70669ZM62.9744 10.343V11.8494H56.2491V10.343H62.9744ZM64.5837 19.31V6.30784H66.5026V11.7777C66.8015 11.2158 67.202 10.8093 67.7042 10.5582C68.2183 10.2952 68.7862 10.1636 69.4079 10.1636C70.0416 10.1636 70.6095 10.2892 71.1116 10.5403C71.6257 10.7794 72.0323 11.144 72.3312 11.6342C72.6301 12.1244 72.7795 12.7461 72.7795 13.4994V19.31H70.8606V14.1091C70.8606 13.2244 70.6752 12.6087 70.3046 12.2619C69.9459 11.9152 69.4916 11.7418 68.9416 11.7418C68.559 11.7418 68.1764 11.8375 67.7938 12.0288C67.4232 12.2081 67.1124 12.507 66.8613 12.9255C66.6222 13.332 66.5026 13.882 66.5026 14.5754V19.31H64.5837ZM85.3375 16.1715C85.0984 16.8889 84.7397 17.4987 84.2615 18.0008C83.7832 18.491 83.2213 18.8616 82.5757 19.1127C81.9301 19.3638 81.2187 19.4893 80.4415 19.4893C79.3057 19.4893 78.3193 19.2442 77.4824 18.754C76.6455 18.2638 75.9999 17.5644 75.5455 16.6558C75.0912 15.7471 74.8641 14.6591 74.8641 13.3918C74.8641 12.1244 75.0912 11.0364 75.5455 10.1278C75.9999 9.21912 76.6455 8.5197 77.4824 8.0295C78.3193 7.53931 79.2997 7.29421 80.4236 7.29421C81.2007 7.29421 81.9002 7.40181 82.5219 7.61702C83.1555 7.83223 83.6936 8.15504 84.1359 8.58546C84.5783 9.01587 84.9191 9.55389 85.1582 10.1995L83.3468 11.0065C83.1077 10.3011 82.761 9.78704 82.3067 9.46422C81.8523 9.12945 81.2605 8.96207 80.5312 8.96207C79.8019 8.96207 79.1622 9.13543 78.6123 9.48216C78.0623 9.82888 77.6319 10.331 77.321 10.9886C77.0221 11.6462 76.8727 12.4472 76.8727 13.3918C76.8727 14.3243 77.0161 15.1254 77.3031 15.7949C77.59 16.4525 78.0025 16.9547 78.5405 17.3014C79.0785 17.6481 79.7242 17.8215 80.4774 17.8215C81.2067 17.8215 81.8344 17.6362 82.3605 17.2655C82.8985 16.8829 83.2811 16.315 83.5082 15.5618L85.3375 16.1715ZM87.1595 19.31V6.30784H89.0784V11.7777C89.3773 11.2158 89.7779 10.8093 90.28 10.5582C90.7941 10.2952 91.362 10.1636 91.9837 10.1636C92.6174 10.1636 93.1853 10.2892 93.6875 10.5403C94.2016 10.7794 94.6081 11.144 94.907 11.6342C95.2059 12.1244 95.3553 12.7461 95.3553 13.4994V19.31H93.4364V14.1091C93.4364 13.2244 93.2511 12.6087 92.8804 12.2619C92.5218 11.9152 92.0674 11.7418 91.5175 11.7418C91.1349 11.7418 90.7523 11.8375 90.3697 12.0288C89.9991 12.2081 89.6882 12.507 89.4371 12.9255C89.198 13.332 89.0784 13.882 89.0784 14.5754V19.31H87.1595ZM101.85 19.4893C100.953 19.4893 100.164 19.304 99.4827 18.9334C98.8012 18.5627 98.2692 18.0307 97.8866 17.3373C97.5159 16.6319 97.3306 15.7949 97.3306 14.8265C97.3306 13.8581 97.5159 13.0271 97.8866 12.3337C98.2692 11.6283 98.7952 11.0902 99.4648 10.7196C100.134 10.349 100.894 10.1636 101.742 10.1636C102.615 10.1636 103.356 10.343 103.966 10.7017C104.576 11.0604 105.042 11.5505 105.365 12.1723C105.688 12.794 105.849 13.4994 105.849 14.2885C105.849 14.5037 105.843 14.7069 105.831 14.8982C105.819 15.0895 105.801 15.2569 105.778 15.4004H98.5681V13.9298H104.935L103.984 14.2167C103.984 13.4037 103.781 12.782 103.374 12.3516C102.968 11.9092 102.412 11.688 101.707 11.688C101.192 11.688 100.744 11.8076 100.361 12.0467C99.9789 12.2858 99.6859 12.6445 99.4827 13.1228C99.2794 13.589 99.1778 14.1629 99.1778 14.8444C99.1778 15.514 99.2854 16.0819 99.5006 16.5482C99.7158 17.0144 100.021 17.3671 100.415 17.6063C100.81 17.8454 101.276 17.9649 101.814 17.9649C102.412 17.9649 102.896 17.8514 103.267 17.6242C103.637 17.397 103.93 17.0802 104.146 16.6737L105.67 17.3911C105.455 17.8215 105.162 18.1981 104.791 18.5209C104.432 18.8318 104.002 19.0709 103.5 19.2383C102.998 19.4056 102.448 19.4893 101.85 19.4893ZM111.788 10.1636C112.505 10.1636 113.115 10.2713 113.617 10.4865C114.131 10.6897 114.561 10.9826 114.908 11.3652C115.255 11.7478 115.518 12.1842 115.697 12.6744L113.886 13.3918C113.731 12.8418 113.479 12.4233 113.133 12.1364C112.798 11.8375 112.356 11.688 111.806 11.688C111.268 11.688 110.807 11.8136 110.425 12.0647C110.042 12.3038 109.749 12.6565 109.546 13.1228C109.355 13.589 109.259 14.1629 109.259 14.8444C109.259 15.514 109.361 16.0819 109.564 16.5482C109.767 17.0144 110.06 17.3671 110.443 17.6063C110.825 17.8454 111.28 17.9649 111.806 17.9649C112.212 17.9649 112.565 17.8992 112.864 17.7677C113.163 17.6242 113.408 17.4269 113.599 17.1758C113.802 16.9128 113.94 16.596 114.011 16.2253L115.751 16.8172C115.584 17.3552 115.321 17.8275 114.962 18.234C114.615 18.6285 114.179 18.9394 113.653 19.1665C113.127 19.3817 112.523 19.4893 111.841 19.4893C110.957 19.4893 110.174 19.304 109.492 18.9334C108.811 18.5627 108.279 18.0307 107.896 17.3373C107.525 16.6319 107.34 15.7949 107.34 14.8265C107.34 13.8581 107.525 13.0271 107.896 12.3337C108.279 11.6283 108.805 11.0902 109.474 10.7196C110.156 10.349 110.927 10.1636 111.788 10.1636ZM126.09 10.343L122.091 14.4319L121.679 14.7189L118.863 17.6421L118.845 15.4542L123.813 10.343H126.09ZM119.545 6.30784V19.31H117.626V6.30784H119.545ZM122.324 13.3559L126.306 19.31H124.082L120.89 14.4499L122.324 13.3559Z" fill="#FAFAFA"/>
</svg>
